<svg aria-hidden="true" width="32" height="32" style="position: absolute; width: 0; height: 0; overflow: hidden;" version="1.1"
  xmlns="http://www.w3.org/2000/svg" xmlns:xlink="http://www.w3.org/1999/xlink">
  <defs>
    <style>
      g {
        display: none;
      }
      g:target {
        display: inline;
      }
    </style>

    <symbol id="icon-close" viewBox="0 0 32 32">
      <title>close</title>
      <path
        d="M18.329 16.022l13.152-13.080c0.631-0.624 0.631-1.635 0-2.257-0.629-0.624-1.65-0.624-2.279 0l-13.14 13.069-13.262-13.263c-0.629-0.631-1.65-0.631-2.279 0-0.629 0.632-0.629 1.655 0 2.286l13.252 13.254-13.3 13.227c-0.629 0.624-0.629 1.635 0 2.257 0.629 0.624 1.65 0.624 2.279 0l13.289-13.215 13.209 13.211c0.629 0.631 1.65 0.631 2.279 0 0.629-0.632 0.629-1.655 0-2.286l-13.199-13.201z">
      </path>
    </symbol>
    <!-- <symbol id="icon-drop_down" viewBox="0 0 2 1">
      <title>drop_down</title>
      <polygon  points="0,0 2,0 1,1"/>
  </symbol> -->
  
  </defs>

  <g id="icon-check" viewBox="0 0 32 32">
    <path fill="#6D71F9" d="M12 21.56l-5.56-5.56-1.893 1.88 7.453 7.453 16-16-1.88-1.88z"></path>
  </g>

</svg>