<?xml version="1.0" standalone="no"?><!DOCTYPE svg PUBLIC "-//W3C//DTD SVG 20010904//EN"
 "http://www.w3.org/TR/2001/REC-SVG-20010904/DTD/svg10.dtd"><svg version="1.0" xmlns="http://www.w3.org/2000/svg" width="700.000000pt" height="700.000000pt" viewBox="0 0 700.000000 700.000000" preserveAspectRatio="xMidYMid meet"><metadata>Created by potrace 1.11, written by Peter Selinger 2001-2013</metadata><g transform="translate(0.000000,700.000000) scale(0.100000,-0.100000)" fill="#000000" stroke="none"><path d="M3099 6336 c-2 -2 -31 -6 -64 -10 -47 -5 -216 -35 -280 -50 -5 -1
-26 -6 -45 -10 -83 -18 -313 -88 -410 -124 -309 -115 -547 -241 -810 -426
-304 -215 -611 -524 -824 -829 -232 -332 -416 -728 -511 -1096 -15 -56 -29
-113 -31 -128 -3 -15 -7 -29 -9 -33 -9 -15 -49 -271 -60 -385 -20 -209 -20
-591 0 -695 2 -14 7 -47 10 -75 6 -59 13 -111 20 -145 3 -14 12 -61 20 -105
37 -194 118 -458 202 -655 46 -108 159 -340 171 -351 4 -4 122 109 263 250
l257 256 -38 91 c-62 148 -128 362 -145 468 -3 17 -10 54 -15 81 -28 151 -44
331 -44 520 0 127 9 303 18 351 2 11 7 44 11 74 6 45 34 193 50 260 2 8 20 69
40 135 130 425 368 820 684 1135 183 182 333 300 542 425 186 111 506 256 519
235 4 -6 5 -623 1 -652 -1 -4 -38 -26 -82 -49 -334 -167 -633 -441 -836 -762
-66 -106 -144 -259 -183 -362 -12 -33 -26 -69 -31 -80 -14 -33 -59 -197 -65
-235 -3 -19 -9 -51 -14 -70 -9 -34 -15 -81 -29 -225 -11 -120 -3 -386 15 -478
2 -12 6 -39 10 -62 14 -97 65 -300 79 -314 3 -3 124 113 268 258 l261 263 2
157 c2 219 18 327 75 496 77 227 186 404 353 571 173 173 364 288 612 370
l111 37 0 988 1 989 -33 0 c-17 0 -34 -2 -36 -4z"/><path d="M3854 5345 l1 -990 95 -31 c498 -164 861 -544 989 -1037 40 -152 43
-177 46 -371 l3 -169 268 -269 269 -268 23 72 c57 177 89 411 86 629 -1 132
-9 261 -19 299 -2 8 -7 35 -10 60 -4 25 -19 95 -35 155 -146 566 -544 1077
-1057 1356 l-63 34 0 334 0 333 25 -6 c13 -3 63 -24 110 -46 47 -22 88 -40 91
-40 3 0 56 -28 117 -61 138 -76 304 -186 417 -276 80 -63 321 -297 385 -373
239 -283 432 -629 533 -957 31 -100 60 -208 69 -253 2 -14 8 -44 14 -68 5 -24
12 -67 15 -95 3 -29 8 -55 10 -58 16 -27 24 -440 11 -599 -7 -86 -10 -110 -27
-210 -5 -30 -12 -71 -15 -90 -10 -60 -74 -295 -95 -345 -4 -11 -22 -58 -40
-105 -18 -47 -41 -103 -52 -124 l-20 -39 260 -260 260 -260 61 120 c142 283
245 574 306 863 9 41 18 84 21 95 2 11 7 40 10 65 3 25 7 52 9 60 2 8 7 42 10
75 4 33 11 89 15 125 8 67 6 559 -3 595 -3 11 -8 47 -11 80 -4 33 -9 71 -11
85 -2 14 -9 57 -15 95 -6 39 -17 98 -25 131 -8 34 -16 73 -19 85 -13 65 -52
198 -93 319 -286 844 -893 1551 -1676 1954 -253 130 -519 231 -757 286 -74 17
-112 26 -160 35 -33 7 -257 42 -295 47 l-31 4 0 -991z"/><path d="M2150 2108 c-740 -741 -1347 -1350 -1349 -1352 -13 -17 361 -417 377
-402 4 4 528 527 1164 1164 l1158 1157 1162 -1162 1163 -1163 121 123 c103
105 196 207 242 268 11 14 -168 197 -1322 1350 -733 734 -1342 1341 -1352
1350 -18 14 -93 -59 -1364 -1333z"/></g></svg>